<svg width="55" height="55" viewBox="0 0 55 55" fill="none" xmlns="http://www.w3.org/2000/svg">
<g clip-path="url(#clip0_24_79)">
<path d="M53.9619 25.0474L29.9441 1.03815C29.6152 0.708415 29.2245 0.446804 28.7943 0.268305C28.3642 0.0898059 27.903 -0.0020752 27.4373 -0.0020752C26.9716 -0.0020752 26.5104 0.0898059 26.0803 0.268305C25.6501 0.446804 25.2594 0.708415 24.9305 1.03815L19.953 6.02425L26.2814 12.3441C27.0248 12.0919 27.824 12.0531 28.5883 12.232C29.3527 12.411 30.0516 12.8005 30.6058 13.3564C31.7883 14.5389 32.1183 16.2388 31.6181 17.7066L37.706 23.803C38.4518 23.5433 39.2559 23.4995 40.0255 23.6768C40.7951 23.8541 41.499 24.2452 42.0561 24.805C43.713 26.4516 43.713 29.1191 42.0561 30.7674C41.6655 31.1588 41.2014 31.4693 40.6906 31.6812C40.1798 31.8931 39.6322 32.0022 39.0792 32.0022C38.5262 32.0022 37.9786 31.8931 37.4678 31.6812C36.957 31.4693 36.493 31.1588 36.1024 30.7674C35.5157 30.1804 35.1146 29.4338 34.949 28.6206C34.7833 27.8074 34.8605 26.9635 35.1708 26.1938L29.468 20.5185V35.4767C29.8702 35.6744 30.2552 35.9425 30.5869 36.2742C32.2249 37.9311 32.2249 40.5883 30.5869 42.2366C29.7928 43.0274 28.7178 43.4715 27.5971 43.4715C26.4764 43.4715 25.4014 43.0274 24.6074 42.2366C24.116 41.7451 23.7538 41.1397 23.5529 40.4744C23.3521 39.809 23.3188 39.1044 23.4561 38.4231C23.5933 37.7418 23.8969 37.105 24.3398 36.5693C24.7826 36.0337 25.351 35.6159 25.9944 35.353V20.2521C25.4812 20.0341 25.0136 19.7216 24.616 19.3308C24.0245 18.7409 23.6225 17.9879 23.4615 17.1683C23.3004 16.3486 23.3876 15.4995 23.7119 14.7297L17.4986 8.48206L1.02783 24.9442C0.369382 25.6125 0.000282764 26.5129 0.000282764 27.451C0.000282764 28.3892 0.369382 29.2896 1.02783 29.9578L25.0456 53.9671C25.3745 54.2968 25.7653 54.5584 26.1954 54.7369C26.6256 54.9154 27.0867 55.0073 27.5524 55.0073C28.0182 55.0073 28.4793 54.9154 28.9095 54.7369C29.3396 54.5584 29.7303 54.2968 30.0592 53.9671L53.9602 30.0661C54.2899 29.7372 54.5515 29.3465 54.73 28.9164C54.9085 28.4862 55.0004 28.025 55.0004 27.5593C55.0004 27.0936 54.9085 26.6325 54.73 26.2023C54.5515 25.7721 54.2899 25.3814 53.9602 25.0525L53.9619 25.0474Z" fill="black"/>
</g>
<defs>
<clipPath id="clip0_24_79">
<rect width="55" height="55" fill="white"/>
</clipPath>
</defs>
</svg>
