<svg width="55" height="55" viewBox="0 0 55 55" fill="none" xmlns="http://www.w3.org/2000/svg">
<path d="M32.2678 33.8593C32.801 34.9403 33.6284 35.8488 34.6548 36.4806C35.6812 37.1124 36.8651 37.4418 38.0703 37.4309C40.5075 37.4309 42.0647 36.2123 42.0647 34.5297C42.0647 32.5136 40.4645 31.7986 37.7833 30.6247L36.312 29.9939C32.0684 28.1858 29.248 25.9204 29.248 21.132C29.248 16.72 32.6098 13.3633 37.8623 13.3633C39.5671 13.2396 41.2705 13.6211 42.7595 14.4603C44.2486 15.2994 45.4572 16.5589 46.2344 18.0812L41.6539 21.022C41.354 20.2676 40.8316 19.6224 40.1562 19.172C39.4808 18.7217 38.6843 18.4875 37.8727 18.5006C37.5189 18.465 37.1615 18.5035 36.8234 18.6137C36.4853 18.7239 36.1739 18.9033 35.909 19.1405C35.6442 19.3778 35.4316 19.6676 35.285 19.9915C35.1383 20.3155 35.0608 20.6664 35.0573 21.022C35.0573 22.7872 36.1505 23.5004 38.6667 24.5936L40.138 25.2226C45.1361 27.3659 47.9566 29.5504 47.9566 34.4626C47.9566 39.7581 43.7972 42.6593 38.2095 42.6593C36.033 42.7978 33.863 42.3035 31.9611 41.2361C30.0593 40.1687 28.507 38.5737 27.4914 36.6437L32.2678 33.8593ZM11.4916 34.375C12.4162 36.0147 13.2567 37.4 15.2728 37.4C17.2047 37.4 18.425 36.6437 18.425 33.7047V13.707H24.3066V33.7872C24.3066 39.8767 20.735 42.649 15.5237 42.649C13.683 42.7487 11.8551 42.2888 10.2807 41.3297C8.70629 40.3707 7.45907 38.9576 6.70312 37.2762L11.4916 34.375Z" fill="#F5DE19"/>
</svg>
