<svg width="21" height="17" viewBox="0 0 21 17" fill="none" xmlns="http://www.w3.org/2000/svg">
<path d="M18.9583 7.29167H4.62751L9.01376 2.02334C9.21886 1.77658 9.31754 1.45845 9.28808 1.13893C9.25862 0.819418 9.10344 0.524692 8.85668 0.319591C8.60991 0.11449 8.29178 0.0158154 7.97227 0.0452742C7.65275 0.074733 7.35803 0.229913 7.15293 0.476674L1.11126 7.72667C1.07061 7.78434 1.03426 7.84492 1.00251 7.90792C1.00251 7.96834 1.00251 8.00459 0.917927 8.06501C0.863158 8.20355 0.834481 8.35103 0.833344 8.50001C0.834481 8.64898 0.863158 8.79646 0.917927 8.93501C0.917927 8.99542 0.917927 9.03167 1.00251 9.09209C1.03426 9.15509 1.07061 9.21567 1.11126 9.27334L7.15293 16.5233C7.26654 16.6597 7.40881 16.7694 7.56962 16.8446C7.73043 16.9198 7.90583 16.9586 8.08334 16.9583C8.36567 16.9589 8.63928 16.8606 8.85668 16.6804C8.97903 16.579 9.08017 16.4544 9.1543 16.3138C9.22844 16.1732 9.27411 16.0194 9.2887 15.8611C9.30329 15.7029 9.28652 15.5433 9.23934 15.3915C9.19216 15.2397 9.1155 15.0988 9.01376 14.9767L4.62751 9.70834H18.9583C19.2788 9.70834 19.5862 9.58103 19.8128 9.35443C20.0394 9.12782 20.1667 8.82048 20.1667 8.50001C20.1667 8.17954 20.0394 7.87219 19.8128 7.64559C19.5862 7.41898 19.2788 7.29167 18.9583 7.29167Z" fill="black"/>
</svg>
